<?xml version="1.0" encoding="utf-8"?>
<!-- Generator: Adobe Illustrator 24.3.0, SVG Export Plug-In . SVG Version: 6.00 Build 0)  -->
<svg version="1.1" id="Layer_1" xmlns="http://www.w3.org/2000/svg" xmlns:xlink="http://www.w3.org/1999/xlink" x="0px" y="0px"
	 viewBox="0 0 865.7 522.4" style="enable-background:new 0 0 865.7 522.4;" xml:space="preserve">
<style type="text/css">
	.st0{opacity:0.15;fill:#1d3531;enable-background:new    ;}
	.st1{opacity:0.43;}
	.st2{fill:#5D8A83;}
	.st3{fill:#5E349D;}
	.st4{fill:#D3D3D3;}
	.st5{opacity:0.4;}
	.st6{opacity:0.66;fill:#CCEC60;enable-background:new    ;}
	.st7{fill:none;stroke:#FFFEFE;stroke-width:2;stroke-miterlimit:10;}
	.st8{fill:#FAB9AF;}
	.st9{fill:#1d3531;}
	.st10{fill:#1d3531;}
	.st11{opacity:7.000000e-02;enable-background:new    ;}
	.st12{fill:#FFFFFF;}
	.st13{fill:#2DAC5C;}
	.st14{fill:#E8948B;}
</style>
<path class="st0" d="M81.8,463c0-189.3,153.4-342.7,342.7-342.7S767.3,273.7,767.3,463"/>
<g class="st1">
	<g>
		<path class="st2" d="M89.5,464.7c0,0,79.4-189.4,107.9-171.9c28.5,17.5,95.7,171.9,95.7,171.9H89.5z"/>
	</g>
</g>
<g class="st1">
	<g>
		<path class="st2" d="M773.9,464.7c0,0-72.6-181.4-98.7-164.6c-26,16.8-87.5,164.6-87.5,164.6H773.9z"/>
	</g>
</g>
<g>
	<path class="st3" d="M439.9,468h-50.4c-1.8,0-3.3-1.5-3.3-3.3c0-1.8,1.5-3.3,3.3-3.3h50.4c1.8,0,3.3,1.5,3.3,3.3
		C443.2,466.5,441.7,468,439.9,468z"/>
</g>
<g>
	<path class="st4" d="M411.6,208.3c0,1.2-1,2.2-2.2,2.2s-2.2-1-2.2-2.2s1-2.2,2.2-2.2C410.6,206.1,411.6,207,411.6,208.3z"/>
</g>
<g class="st5">
	<path class="st4" d="M771,100.5H543.6c-7.8,0-14.2-6.4-14.2-14.2l0,0c0-7.8,6.4-14.2,14.2-14.2H771c7.8,0,14.2,6.4,14.2,14.2l0,0
		C785.2,94.1,778.8,100.5,771,100.5z"/>
</g>
<g class="st5">
	<path class="st4" d="M322.3,82.8H184.7c-7.8,0-14.2-6.4-14.2-14.2l0,0c0-7.8,6.4-14.2,14.2-14.2h137.6c7.8,0,14.2,6.4,14.2,14.2
		l0,0C336.5,76.4,330.1,82.8,322.3,82.8z"/>
</g>
<g class="st5">
	<path class="st4" d="M656.5,56.7H518.9c-7.8,0-14.2-6.4-14.2-14.2l0,0c0-7.8,6.4-14.2,14.2-14.2h137.6c7.8,0,14.2,6.4,14.2,14.2
		l0,0C670.7,50.3,664.3,56.7,656.5,56.7z"/>
</g>
<g class="st5">
	<path class="st4" d="M183.4,140.8H45.9c-7.8,0-14.2-6.4-14.2-14.2l0,0c0-7.8,6.4-14.2,14.2-14.2h137.6c7.8,0,14.2,6.4,14.2,14.2
		l0,0C197.7,134.4,191.3,140.8,183.4,140.8z"/>
</g>
<g class="st5">
	<path class="st4" d="M734.1,234.4H596.5c-7.8,0-14.2-6.4-14.2-14.2l0,0c0-7.8,6.4-14.2,14.2-14.2h137.6c7.8,0,14.2,6.4,14.2,14.2
		l0,0C748.3,228,741.9,234.4,734.1,234.4z"/>
</g>
<g class="st5">
	<path class="st4" d="M252.1,248.7h-175c-6.9,0-12.6-5.7-12.6-12.6v-3.3c0-6.9,5.7-12.6,12.6-12.6h175c6.9,0,12.6,5.7,12.6,12.6v3.3
		C264.7,243,259.1,248.7,252.1,248.7z"/>
</g>
<path class="st4" d="M846,478c0,10.8-8.7,19.5-19.5,19.5H45.1c-10.8,0-19.5-8.7-19.5-19.5l0,0c0-10.8,8.7-19.5,19.5-19.5h781.5
	C837.3,458.5,846,467.3,846,478L846,478z"/>
<path class="st6" d="M128.5,378.4c0,0-15.5,54.9,22.5,56.8s32.1-36.3,25.5-51.3s43.6-67.7-11-96.1
	C110.9,259.3,91.9,365.2,128.5,378.4z"/>
<path class="st6" d="M63,399.8c0,0-11.1,31.8,11.2,34.3c22.4,2.5,20.3-20.2,16.9-29.3s28.2-38.3-3-57.1S41.9,390.8,63,399.8z"/>
<path class="st6" d="M756.1,378.4c0,0-15.5,54.9,22.5,56.8s32.1-36.3,25.5-51.3s43.6-67.7-11-96.1
	C738.5,259.3,719.5,365.2,756.1,378.4z"/>
<path class="st6" d="M690.6,399.8c0,0-11.1,31.8,11.2,34.3c22.4,2.5,20.3-20.2,16.9-29.3s28.2-38.3-3-57.1S669.5,390.8,690.6,399.8z
	"/>
<g>
	<line class="st7" x1="76" y1="369.7" x2="76.4" y2="458.8"/>
	<polyline class="st7" points="86,390.9 76.2,402.8 65.7,392.1 	"/>
	<line class="st7" x1="148.1" y1="320.9" x2="149.5" y2="456"/>
	<polyline class="st7" points="165.3,338.3 148.4,353.6 133.1,339.5 	"/>
	<polyline class="st7" points="165.2,366.7 148.3,382 133,367.9 	"/>
	<line class="st7" x1="703.6" y1="369.7" x2="704" y2="458.8"/>
	<polyline class="st7" points="713.6,390.9 703.8,402.8 693.3,392.1 	"/>
	<line class="st7" x1="775.7" y1="320.9" x2="777.1" y2="456"/>
	<polyline class="st7" points="792.9,338.3 776,353.6 760.7,339.5 	"/>
	<polyline class="st7" points="792.8,366.7 775.9,382 760.6,367.9 	"/>
</g>
<g>
	<g>
		<polygon class="st8" points="452.4,333.4 442,260.9 414.2,257.1 399.7,332.9 		"/>
		<path class="st9" d="M430.9,445.7l0,8.2c0,1.7-0.2,3.3-0.7,4.9l-0.7,2.5c-0.6,2.1,1,4.1,3.1,4.1c5.6,0,15.1,0,17.5,0
			c0.4,0,0.8-0.3,0.8-0.7c0.2-2.4-6.7-4-11.9-6c-4-1.5-3.7-8.6-3.3-12.8c0.2-1.6-1.1-2.9-2.7-2.8l0,0
			C431.8,443.3,430.8,444.4,430.9,445.7z"/>
		<path class="st9" d="M392.6,443.4l-2.8,9.3c-0.1,0.4-0.3,0.8-0.6,1.2l-2,3c-1.3,1.9-0.4,4.5,1.8,5.1c0,0,4,1.4,8.2,2.8
			c4.2,1.4,9.6,0.2,9.6-0.9c0-2.5-2.3-0.5-6.2-3.1c-1.3-0.9-2.6-1.8-3.8-2.7c-3.3-2.6-0.4-9.3,1.6-13c0.7-1.3,0-3-1.5-3.3l-1-0.2
			C394.4,441.2,393,442,392.6,443.4z"/>
		<path class="st10" d="M421.4,334.1l30.8-2.6c0,0,3.1,22.4-4.7,63.1c-3.7,19.1-11.3,55.5-11.3,55.5c-1.9,0.8-3.8,1-5.8,0.5
			c0,0-0.6-16.1-0.9-33.4c-0.3-16.6-0.4-34.3-1.5-40.1C425.9,365.3,421.4,334.1,421.4,334.1z"/>
		<path class="st11" d="M421.4,334.1l30.8-2.6c0,0,3.1,22.4-4.7,63.1c-3.7,19.1-11.3,55.5-11.3,55.5c-1.9,0.8-3.8,1-5.8,0.5
			c0,0-0.6-16.1-0.9-33.4c-0.3-16.6-0.4-34.3-1.5-40.1C425.9,365.3,421.4,334.1,421.4,334.1z"/>
		<path class="st10" d="M427.7,334.5c3.2,17.1,10.3,42.6-3.4,66.7c-13.7,24-28.1,49-28.1,49c-1.9,0.1-3.5-0.6-5.1-1.8
			c0,0,2.4-10.9,5.9-23.6c4-14.5,9-31.6,7.6-40.6c-2.7-16.7-5.8-39-4.8-49.8C400.7,323.6,426.1,325.5,427.7,334.5z"/>
		<path class="st11" d="M427.7,334.5c3.2,17.1,10.3,42.6-3.4,66.7c-13.7,24-28.1,49-28.1,49c-1.9,0.1-3.5-0.6-5.1-1.8
			c0,0,2.4-10.9,5.9-23.6c4-14.5,9-31.6,7.6-40.6c-2.7-16.7-5.8-39-4.8-49.8C400.7,323.6,426.1,325.5,427.7,334.5z"/>
		<path class="st12" d="M453.4,331.5L442,260.9l-27.8-3.8l-15,74.6c-0.3,1.4,0.6,2.8,2,3c5.2,1,17.7,3,31.7,3c10.4,0,16.3-2,19-3.3
			C453,333.9,453.6,332.7,453.4,331.5z"/>
		<path class="st13" d="M422.9,261.5c0,5.1-0.9,10.1-2.7,14.9c-3.4,9.4-8.5,27.1-5.5,42.6c4.4,22.4,10,31.5,2.7,36.8
			c-7.3,5.2-21.2-3.5-21.6-6.4c-0.4-2.9,2.7-38.7,6.2-54.1s13.4-37.8,13.4-37.8l4.2,0.4C421.5,258.1,422.9,259.6,422.9,261.5
			L422.9,261.5z"/>
		<path class="st13" d="M434.5,259.9c0,0,4.8,10.4,3.1,25.4c-1.7,15-5.6,60.6,8.1,67.5c4.3,2.2,14.2-7.5,14.2-11.1
			c0-3.6-3.3-15.6-6.4-26.5S442.8,261,442.8,261L434.5,259.9z"/>
		<g>
			<path class="st8" d="M430.6,227.5c-6.2,0-8.5,4.4-8.6,12.6c0,3.1,1.3,6.1,2.4,8c0.8,1.4,1,3.1,0.6,4.7l-1.4,4.6
				c-0.9,4.3,1.1,6.6,4.1,7.5c1.5,0.4,3.3,0.1,4.6-0.7c1.5-1,1.7-3.1,1.4-5l-0.4-1.3c-0.5-1.8,0.6-3.7,2.3-4.1c4.8-1,5.5-6,6.8-13.8
				C443.8,232.1,436.8,227.5,430.6,227.5z"/>
			<path d="M430.4,223c-4.3,0-11.4,2.4-10.5,8.7l0.8,4.4c0.3,1.8,1.8,3.1,3.6,3.2l0,0c0.2,0.6,0.7,1,1.3,1c0.8,0,1.4-0.6,1.4-1.4
				l0,0c0-2,1.4-3.7,3.3-4.1c2.4-0.5,4.9-0.7,7.6,0.1c4.9,1.3,10.6-6.8,10.7-6.8c0,0-2.5,1.9-7.3,0.1
				C436.3,226.3,438.3,222.7,430.4,223z"/>
			<path class="st8" d="M425.4,240.3c0,1.9-0.7,3.4-2.5,3.4s-3-2.6-3-4.5c0-1.9,1.2-2.4,3-2.4S425.4,238.4,425.4,240.3z"/>
		</g>
		<path class="st13" d="M416,237.4c0,0-0.7,1.6-2.2,3.7c-0.8,1.1-1.8,2.3-3,3.7c-1.2,1.4-2.6,2.9-4.2,4.5c-1.5,1.6-3.2,3.4-4.9,5.3
			c-1.7,1.9-3.4,4-5,6.2c-1.5,2.3-3,4.6-4.1,7.1c-0.5,1.2-1,2.4-1.3,3.6c-0.3,1.1-0.4,2.2-0.2,2.8c0.1,0.3,0.2,0.5,0.3,0.6
			c0.1,0.1,0.2,0.2,0.4,0.2c0.3,0.2,0.9,0.5,1.8,0.7l0.5,0.1c0.1,0,0.2,0.1,0.3,0.1l0.2,0l0.6,0l0.7,0l0.7,0
			c0.9-0.1,1.7-0.4,2.4-0.8c1.4-0.8,2.4-1.8,3.6-2.7c1.2-1,2.5-2.2,3.7-3.5c2.4-2.6,4.5-5.6,6-7.8c0.8-1.2,1.4-2.1,1.9-2.7
			c0.5-0.7,0.7-1,0.7-1l1.4,0c0,0,0.2,0.4,0.6,1.2c0.4,0.8,0.8,1.9,1.2,3.4c0.8,3,1.3,7.6-0.6,13c-0.9,2.7-2.5,5.6-5.1,8.2
			c-1.3,1.3-2.9,2.4-4.8,3.2c-1.8,0.9-3.9,1.4-6,1.6c-4.2,0.4-8.5-0.5-11.8-2.1c-0.9-0.4-1.9-0.9-2.9-1.5c-1-0.7-2-1.4-2.8-2.5
			c-0.9-1-1.6-2.3-2-3.6c-0.4-1.3-0.6-2.6-0.6-3.8c0.1-2.4,0.7-4.3,1.4-6.1c0.7-1.7,1.6-3.2,2.5-4.6c1.8-2.8,3.8-5.2,5.7-7.4
			c2-2.2,3.9-4.3,5.7-6.3c1.8-1.9,3.6-3.7,5.3-5.3c1.7-1.6,3.3-2.9,4.8-4.1c1.5-1.2,2.8-2.1,4-2.8c2.4-1.3,4.1-1.7,4.1-1.7
			L416,237.4z"/>
		<path class="st13" d="M464.3,337.8c0,0-0.9-1.2-1.7-3.5c-0.4-1.1-0.7-2.5-1-4.1c-0.3-1.6-0.6-3.4-0.9-5.3c-0.3-2-0.6-4.1-1-6.3
			c-0.4-2.2-1-4.5-1.5-6.9c-0.6-2.4-1.2-4.8-2-7.3c-0.3-1.2-0.8-2.4-1.1-3.6c-0.4-1.2-0.8-2.3-1.3-3.6c-0.4-1.2-0.9-2.4-1.4-3.6
			c-0.5-1.2-1-2.3-1.6-3.5c-1.1-2.2-2.2-4.4-3.2-6.4c-1-2-1.8-4-2.6-5.9c-0.8-1.9-1.6-3.6-2.4-5.3c-0.8-1.6-1.5-3.2-2.3-4.5
			c-0.7-1.4-1.4-2.6-2-3.6c-0.6-1.1-1-1.9-1.3-2.5c-0.3-0.6-0.5-0.9-0.5-0.9l0.7-1c0,0,0.4,0,1.1,0.2c0.3,0.1,0.8,0.2,1.2,0.3
			c0.5,0.1,1,0.3,1.6,0.5c1.2,0.4,2.7,1.1,4.2,2c1.5,0.9,3.2,2.1,4.9,3.6c1.7,1.5,3.3,3.3,4.8,5.3c1.5,2,2.9,4.3,3.9,6.9
			c1,2.5,1.7,5.2,2.2,7.9c0.5,2.7,1.1,5.3,1.6,8c0.2,1.3,0.5,2.7,0.7,4.1c0.2,1.4,0.4,2.7,0.5,4.1c0.3,2.7,0.5,5.3,0.7,7.8
			c0.2,2.5,0.4,4.9,0.6,7.2c0.2,2.3,0.5,4.4,0.7,6.4c0.2,2,0.3,3.8,0.4,5.4c0,1.6,0.1,3-0.1,4.2c-0.3,2.4-1,3.8-1,3.8L464.3,337.8z"
			/>
		<path class="st8" d="M423.6,236.7c-1.7,0.8-3.2,1.9-3.9,2.2c-0.3,0.1-1.2,0.2-1.4,0.2c-0.7,0.1-1.9,0.2-2.5,0.6l-2.4,2
			c-1.2,1-2.5,1.2-3.5,0l0,0c-1.1-1.2-0.5-2.7,0.9-3.6l1.7-1.4c1.1-0.7,1.8-1.9,2.5-3c1.4-2.2,4.2-3.7,6.4-4.6
			c1.4-0.6,3.3,0.3,5.8,1.5c1.2,0.6,2.9,2,1.2,2.3c-1.4,0.3-5.3-1.4-7.6,2.1c-0.1,0.2-0.4,0.6-0.2,0.8c0.5,0.6,1.8-0.4,2.7-0.6
			c1.2-0.3,2.1,0,2.3,0.4C425.8,236,424.8,236,423.6,236.7z"/>
		<path class="st8" d="M462.2,346c0-1.9-0.1-3.8,0-4.5c0-0.3,0.4-1.1,0.5-1.3c0.3-0.7,0.8-1.7,0.6-2.5l-0.6-3.1
			c-0.3-1.5,0.2-2.7,1.6-3.1l0,0c1.6-0.3,2.6,0.9,2.8,2.5l0.5,2.1c0.1,1.3,0.8,2.4,1.5,3.6c1.3,2.3,1.3,5.4,1,7.9
			c-0.1,1.5-1.8,2.8-4.1,4.4c-1.1,0.8-3.1,1.6-2.6,0c0.4-1.4,3.7-4,1.8-7.7c-0.1-0.2-0.4-0.6-0.6-0.6c-0.7,0.1-0.5,1.8-0.7,2.7
			c-0.3,1.2-0.9,1.8-1.4,1.8C461.7,348.2,462.1,347.3,462.2,346z"/>
	</g>
	<path class="st14" d="M424.6,248.6c0,0,4.6,6.4,10.4,5.5c0,0-1.2,0.6-1.5,1.5C433.6,255.6,428.1,255.2,424.6,248.6z"/>
</g>
<g>
	<g>
		<path class="st13" d="M429.6,199.1c0.2-0.7,0.6-0.9,1.3-0.8l4.8,1.2c0.7,0.2,0.9,0.6,0.8,1.3l-1.2,4.7c-0.2,0.7-0.6,0.9-1.3,0.8
			l-4.8-1.2c-0.7-0.2-0.9-0.6-0.8-1.3L429.6,199.1z M445.4,165.6c4.8,1.2,6.7,4.4,5.6,9.2l-2.5,10.1c-0.1,0.6-0.4,0.9-0.9,1.1
			l-8,4.7c-0.4,0.3-0.7,0.6-0.8,1.2l-0.6,2.3c-0.2,0.7-0.6,0.9-1.3,0.8l-4.8-1.2c-0.7-0.2-0.9-0.6-0.8-1.3l1.1-4.5
			c0.1-0.5,0.4-0.8,0.8-1.1l8.7-5.2l1.7-7.1c0.3-1.3-0.3-2.2-1.5-2.6l-2.5-0.6c-1.4-0.3-2.2,0.2-2.6,1.5l-1,4
			c-0.1,0.5-0.5,0.7-1,0.6l-5.3-1.3c-0.6-0.1-0.7-0.5-0.6-1l1.3-5.4c1.2-4.8,4.4-6.7,9.2-5.6L445.4,165.6z"/>
	</g>
</g>
</svg>