<svg xmlns="http://www.w3.org/2000/svg" viewBox="0 0 2560 919" preserveAspectRatio="xMidYMid" width="2560" height="919" style="shape-rendering: auto; display: block; background: rgb(255, 255, 255);"><g data-idx="1"><defs data-idx="2"><g transform="matrix(0.8340000510215759,0,0,0.8340000510215759,-41.700002551078796,-41.700002551078796)" id="id-0" data-idx="3"><path fill="#5d8a83" d="M0 0M100 0A100 100 0 0 1 0 100L0 0" data-idx="4"></path></g><g transform="matrix(0.8340000510215759,0,0,0.8340000510215759,-41.700002551078796,-41.700002551078796)" id="id-1" data-idx="5"><path fill="#1d3531" d="M0 0M100 0A100 100 0 0 1 0 100L0 0" data-idx="6"></path></g><g transform="matrix(0.8340000510215759,0,0,0.8340000510215759,-41.700002551078796,-41.700002551078796)" id="id-2" data-idx="7"><path fill="#ccec60" d="M0 0M100 0A100 100 0 0 1 0 100L0 0" data-idx="8"></path></g><g transform="matrix(0.8340000510215759,0,0,0.8340000510215759,-41.700002551078796,-41.700002551078796)" id="id-3" data-idx="9"><path fill="#5d8a83" d="M0 0M100 0A100 100 0 0 1 0 100L0 0" data-idx="10"></path></g></defs><use transform="matrix(-1.8369701987210297e-16,-1,1,-1.8369701987210297e-16,0,0)" href="#id-2" data-idx="11"></use><use transform="matrix(1,0,0,1,85,0)" href="#id-3" data-idx="12"></use><g transform="matrix(1,0,0,1,170,0)" data-idx="13"><g data-idx="14" transform="matrix(1,0,0,1,0,47.91371536254883)">
<use transform="matrix(1,0,0,1,0,0)" href="#id-1" data-idx="15"></use>

</g></g><use transform="matrix(1,0,0,1,255,0)" href="#id-0" data-idx="17"></use><use transform="matrix(-1.8369701987210297e-16,-1,1,-1.8369701987210297e-16,340,0)" href="#id-1" data-idx="18"></use><use transform="matrix(-1.8369701987210297e-16,-1,1,-1.8369701987210297e-16,425,0)" href="#id-2" data-idx="19"></use><use transform="matrix(-1,1.2246467991473532e-16,-1.2246467991473532e-16,-1,680,0)" href="#id-1" data-idx="20"></use><use transform="matrix(-1.8369701987210297e-16,-1,1,-1.8369701987210297e-16,765,0)" href="#id-2" data-idx="21"></use><use transform="matrix(-1,1.2246467991473532e-16,-1.2246467991473532e-16,-1,850,0)" href="#id-2" data-idx="22"></use><use transform="matrix(-1.8369701987210297e-16,-1,1,-1.8369701987210297e-16,935,0)" href="#id-3" data-idx="23"></use><use transform="matrix(6.123233995736766e-17,1,-1,6.123233995736766e-17,1105,0)" href="#id-3" data-idx="24"></use><use transform="matrix(-1.8369701987210297e-16,-1,1,-1.8369701987210297e-16,1190,0)" href="#id-1" data-idx="25"></use><use transform="matrix(-1.8369701987210297e-16,-1,1,-1.8369701987210297e-16,1275,0)" href="#id-1" data-idx="26"></use><use transform="matrix(1,0,0,1,1360,0)" href="#id-3" data-idx="27"></use><use transform="matrix(1,0,0,1,1615,0)" href="#id-3" data-idx="28"></use><use transform="matrix(-1,1.2246467991473532e-16,-1.2246467991473532e-16,-1,1700,0)" href="#id-2" data-idx="29"></use><use transform="matrix(1,0,0,1,1785,0)" href="#id-2" data-idx="30"></use><use transform="matrix(1,0,0,1,1870,0)" href="#id-2" data-idx="31"></use><use transform="matrix(1,0,0,1,1955,0)" href="#id-0" data-idx="32"></use><use transform="matrix(-1.8369701987210297e-16,-1,1,-1.8369701987210297e-16,2040,0)" href="#id-1" data-idx="33"></use><use transform="matrix(-1.8369701987210297e-16,-1,1,-1.8369701987210297e-16,2125,0)" href="#id-3" data-idx="34"></use><use transform="matrix(6.123233995736766e-17,1,-1,6.123233995736766e-17,2210,0)" href="#id-2" data-idx="35"></use><use transform="matrix(6.123233995736766e-17,1,-1,6.123233995736766e-17,2295,0)" href="#id-1" data-idx="36"></use><use transform="matrix(6.123233995736766e-17,1,-1,6.123233995736766e-17,2465,0)" href="#id-2" data-idx="37"></use><use transform="matrix(-1.8369701987210297e-16,-1,1,-1.8369701987210297e-16,2635,0)" href="#id-0" data-idx="38"></use><use transform="matrix(6.123233995736766e-17,1,-1,6.123233995736766e-17,0,85)" href="#id-3" data-idx="39"></use><use transform="matrix(1,0,0,1,85,85)" href="#id-1" data-idx="40"></use><use transform="matrix(-1.8369701987210297e-16,-1,1,-1.8369701987210297e-16,255,85)" href="#id-3" data-idx="41"></use><use transform="matrix(-1,1.2246467991473532e-16,-1.2246467991473532e-16,-1,340,85)" href="#id-2" data-idx="42"></use><use transform="matrix(-1.8369701987210297e-16,-1,1,-1.8369701987210297e-16,425,85)" href="#id-3" data-idx="43"></use><use transform="matrix(-1.8369701987210297e-16,-1,1,-1.8369701987210297e-16,510,85)" href="#id-2" data-idx="44"></use><use transform="matrix(6.123233995736766e-17,1,-1,6.123233995736766e-17,595,85)" href="#id-0" data-idx="45"></use><use transform="matrix(-1,1.2246467991473532e-16,-1.2246467991473532e-16,-1,850,85)" href="#id-3" data-idx="46"></use><use transform="matrix(6.123233995736766e-17,1,-1,6.123233995736766e-17,935,85)" href="#id-2" data-idx="47"></use><use transform="matrix(6.123233995736766e-17,1,-1,6.123233995736766e-17,1020,85)" href="#id-1" data-idx="48"></use><use transform="matrix(1,0,0,1,1105,85)" href="#id-3" data-idx="49"></use><use transform="matrix(1,0,0,1,1190,85)" href="#id-3" data-idx="50"></use><use transform="matrix(-1,1.2246467991473532e-16,-1.2246467991473532e-16,-1,1275,85)" href="#id-0" data-idx="51"></use><use transform="matrix(-1,1.2246467991473532e-16,-1.2246467991473532e-16,-1,1360,85)" href="#id-0" data-idx="52"></use><use transform="matrix(6.123233995736766e-17,1,-1,6.123233995736766e-17,1445,85)" href="#id-1" data-idx="53"></use><use transform="matrix(1,0,0,1,1530,85)" href="#id-3" data-idx="54"></use><use transform="matrix(-1,1.2246467991473532e-16,-1.2246467991473532e-16,-1,1615,85)" href="#id-0" data-idx="55"></use><use transform="matrix(6.123233995736766e-17,1,-1,6.123233995736766e-17,1700,85)" href="#id-2" data-idx="56"></use><use transform="matrix(-1,1.2246467991473532e-16,-1.2246467991473532e-16,-1,1955,85)" href="#id-1" data-idx="57"></use><use transform="matrix(1,0,0,1,2040,85)" href="#id-1" data-idx="58"></use><use transform="matrix(-1.8369701987210297e-16,-1,1,-1.8369701987210297e-16,2125,85)" href="#id-0" data-idx="59"></use><use transform="matrix(6.123233995736766e-17,1,-1,6.123233995736766e-17,2295,85)" href="#id-0" data-idx="60"></use><use transform="matrix(1,0,0,1,2380,85)" href="#id-3" data-idx="61"></use><use transform="matrix(6.123233995736766e-17,1,-1,6.123233995736766e-17,2465,85)" href="#id-0" data-idx="62"></use><use transform="matrix(-1,1.2246467991473532e-16,-1.2246467991473532e-16,-1,2635,85)" href="#id-2" data-idx="63"></use><g transform="matrix(1,0,0,1,0,170)" data-idx="64"><g data-idx="65" transform="matrix(1,0,0,1,47.91371536254883,0)">
<use transform="matrix(6.123233995736766e-17,1,-1,6.123233995736766e-17,0,0)" href="#id-1" data-idx="66"></use>

</g></g><g transform="matrix(1,0,0,1,170,170)" data-idx="68"><g data-idx="69" transform="matrix(1,0,0,1,47.91371536254883,0)">
<use transform="matrix(1,0,0,1,0,0)" href="#id-2" data-idx="70"></use>

</g></g><g transform="matrix(1,0,0,1,255,170)" data-idx="72"><g data-idx="73" transform="matrix(1,0,0,1,47.91371536254883,0)">
<use transform="matrix(-1.8369701987210297e-16,-1,1,-1.8369701987210297e-16,0,0)" href="#id-0" data-idx="74"></use>

</g></g><g transform="matrix(1,0,0,1,340,170)" data-idx="76"><g data-idx="77" transform="matrix(1,0,0,1,47.91371536254883,0)">
<use transform="matrix(-1.8369701987210297e-16,-1,1,-1.8369701987210297e-16,0,0)" href="#id-1" data-idx="78"></use>

</g></g><g transform="matrix(1,0,0,1,425,170)" data-idx="80"><g data-idx="81" transform="matrix(1,0,0,1,47.91371536254883,0)">
<use transform="matrix(-1,1.2246467991473532e-16,-1.2246467991473532e-16,-1,0,0)" href="#id-0" data-idx="82"></use>

</g></g><g transform="matrix(1,0,0,1,510,170)" data-idx="84"><g data-idx="85" transform="matrix(1,0,0,1,47.91371536254883,0)">
<use transform="matrix(1,0,0,1,0,0)" href="#id-0" data-idx="86"></use>

</g></g><g transform="matrix(1,0,0,1,595,170)" data-idx="88"><g data-idx="89" transform="matrix(1,0,0,1,47.91371536254883,0)">
<use transform="matrix(1,0,0,1,0,0)" href="#id-1" data-idx="90"></use>

</g></g><g transform="matrix(1,0,0,1,680,170)" data-idx="92"><g data-idx="93" transform="matrix(1,0,0,1,47.91371536254883,0)">
<use transform="matrix(-1.8369701987210297e-16,-1,1,-1.8369701987210297e-16,0,0)" href="#id-2" data-idx="94"></use>

</g></g><g transform="matrix(1,0,0,1,765,170)" data-idx="96"><g data-idx="97" transform="matrix(1,0,0,1,47.91371536254883,0)">
<use transform="matrix(6.123233995736766e-17,1,-1,6.123233995736766e-17,0,0)" href="#id-0" data-idx="98"></use>

</g></g><g transform="matrix(1,0,0,1,850,170)" data-idx="100"><g data-idx="101" transform="matrix(1,0,0,1,47.91371536254883,0)">
<use transform="matrix(-1.8369701987210297e-16,-1,1,-1.8369701987210297e-16,0,0)" href="#id-2" data-idx="102"></use>

</g></g><g transform="matrix(1,0,0,1,935,170)" data-idx="104"><g data-idx="105" transform="matrix(1,0,0,1,47.91371536254883,0)">
<use transform="matrix(1,0,0,1,0,0)" href="#id-3" data-idx="106"></use>

</g></g><g transform="matrix(1,0,0,1,1020,170)" data-idx="108"><g data-idx="109" transform="matrix(1,0,0,1,47.91371536254883,0)">
<use transform="matrix(-1.8369701987210297e-16,-1,1,-1.8369701987210297e-16,0,0)" href="#id-3" data-idx="110"></use>

</g></g><g transform="matrix(1,0,0,1,1105,170)" data-idx="112"><g data-idx="113" transform="matrix(1,0,0,1,47.91371536254883,0)">
<use transform="matrix(1,0,0,1,0,0)" href="#id-3" data-idx="114"></use>

</g></g><g transform="matrix(1,0,0,1,1275,170)" data-idx="116"><g data-idx="117" transform="matrix(1,0,0,1,47.91371536254883,0)">
<use transform="matrix(-1.8369701987210297e-16,-1,1,-1.8369701987210297e-16,0,0)" href="#id-0" data-idx="118"></use>

</g></g><g transform="matrix(1,0,0,1,1360,170)" data-idx="120"><g data-idx="121" transform="matrix(1,0,0,1,47.91371536254883,0)">
<use transform="matrix(-1,1.2246467991473532e-16,-1.2246467991473532e-16,-1,0,0)" href="#id-2" data-idx="122"></use>

</g></g><g transform="matrix(1,0,0,1,1445,170)" data-idx="124"><g data-idx="125" transform="matrix(1,0,0,1,47.91371536254883,0)">
<use transform="matrix(6.123233995736766e-17,1,-1,6.123233995736766e-17,0,0)" href="#id-2" data-idx="126"></use>

</g></g><g transform="matrix(1,0,0,1,1530,170)" data-idx="128"><g data-idx="129" transform="matrix(1,0,0,1,47.91371536254883,0)">
<use transform="matrix(-1.8369701987210297e-16,-1,1,-1.8369701987210297e-16,0,0)" href="#id-2" data-idx="130"></use>

</g></g><g transform="matrix(1,0,0,1,1615,170)" data-idx="132"><g data-idx="133" transform="matrix(1,0,0,1,47.91371536254883,0)">
<use transform="matrix(-1,1.2246467991473532e-16,-1.2246467991473532e-16,-1,0,0)" href="#id-3" data-idx="134"></use>

</g></g><g transform="matrix(1,0,0,1,1700,170)" data-idx="136"><g data-idx="137" transform="matrix(1,0,0,1,47.91371536254883,0)">
<use transform="matrix(6.123233995736766e-17,1,-1,6.123233995736766e-17,0,0)" href="#id-0" data-idx="138"></use>

</g></g><g transform="matrix(1,0,0,1,1785,170)" data-idx="140"><g data-idx="141" transform="matrix(1,0,0,1,47.91371536254883,0)">
<use transform="matrix(1,0,0,1,0,0)" href="#id-0" data-idx="142"></use>

</g></g><g transform="matrix(1,0,0,1,1870,170)" data-idx="144"><g data-idx="145" transform="matrix(1,0,0,1,47.91371536254883,0)">
<use transform="matrix(-1,1.2246467991473532e-16,-1.2246467991473532e-16,-1,0,0)" href="#id-2" data-idx="146"></use>

</g></g><g transform="matrix(1,0,0,1,1955,170)" data-idx="148"><g data-idx="149" transform="matrix(1,0,0,1,47.91371536254883,0)">
<use transform="matrix(-1,1.2246467991473532e-16,-1.2246467991473532e-16,-1,0,0)" href="#id-1" data-idx="150"></use>

</g></g><g transform="matrix(1,0,0,1,2040,170)" data-idx="152"><g data-idx="153" transform="matrix(1,0,0,1,47.91371536254883,0)">
<use transform="matrix(6.123233995736766e-17,1,-1,6.123233995736766e-17,0,0)" href="#id-0" data-idx="154"></use>

</g></g><g transform="matrix(1,0,0,1,2210,170)" data-idx="156"><g data-idx="157" transform="matrix(1,0,0,1,47.91371536254883,0)">
<use transform="matrix(-1.8369701987210297e-16,-1,1,-1.8369701987210297e-16,0,0)" href="#id-2" data-idx="158"></use>

</g></g><g transform="matrix(1,0,0,1,2295,170)" data-idx="160"><g data-idx="161" transform="matrix(1,0,0,1,47.91371536254883,0)">
<use transform="matrix(-1,1.2246467991473532e-16,-1.2246467991473532e-16,-1,0,0)" href="#id-0" data-idx="162"></use>

</g></g><g transform="matrix(1,0,0,1,2380,170)" data-idx="164"><g data-idx="165" transform="matrix(1,0,0,1,47.91371536254883,0)">
<use transform="matrix(-1.8369701987210297e-16,-1,1,-1.8369701987210297e-16,0,0)" href="#id-3" data-idx="166"></use>

</g></g><g transform="matrix(1,0,0,1,2465,170)" data-idx="168"><g data-idx="169" transform="matrix(1,0,0,1,47.91371536254883,0)">
<use transform="matrix(6.123233995736766e-17,1,-1,6.123233995736766e-17,0,0)" href="#id-1" data-idx="170"></use>

</g></g><g transform="matrix(1,0,0,1,2550,170)" data-idx="172"><g data-idx="173" transform="matrix(1,0,0,1,47.91371536254883,0)">
<use transform="matrix(-1,1.2246467991473532e-16,-1.2246467991473532e-16,-1,0,0)" href="#id-1" data-idx="174"></use>

</g></g><g transform="matrix(1,0,0,1,2635,170)" data-idx="176"><g data-idx="177" transform="matrix(1,0,0,1,47.91371536254883,0)">
<use transform="matrix(1,0,0,1,0,0)" href="#id-2" data-idx="178"></use>

</g></g><use transform="matrix(1,0,0,1,0,255)" href="#id-0" data-idx="180"></use><use transform="matrix(6.123233995736766e-17,1,-1,6.123233995736766e-17,85,255)" href="#id-2" data-idx="181"></use><g transform="matrix(1,0,0,1,170,255)" data-idx="182"><g data-idx="183" transform="matrix(1,0,0,1,0,47.91371536254883)">
<use transform="matrix(-1,1.2246467991473532e-16,-1.2246467991473532e-16,-1,0,0)" href="#id-2" data-idx="184"></use>

</g></g><use transform="matrix(-1,1.2246467991473532e-16,-1.2246467991473532e-16,-1,255,255)" href="#id-2" data-idx="186"></use><use transform="matrix(1,0,0,1,340,255)" href="#id-0" data-idx="187"></use><use transform="matrix(1,0,0,1,425,255)" href="#id-1" data-idx="188"></use><use transform="matrix(6.123233995736766e-17,1,-1,6.123233995736766e-17,510,255)" href="#id-3" data-idx="189"></use><use transform="matrix(-1,1.2246467991473532e-16,-1.2246467991473532e-16,-1,595,255)" href="#id-3" data-idx="190"></use><use transform="matrix(-1,1.2246467991473532e-16,-1.2246467991473532e-16,-1,680,255)" href="#id-2" data-idx="191"></use><use transform="matrix(1,0,0,1,850,255)" href="#id-3" data-idx="192"></use><use transform="matrix(-1,1.2246467991473532e-16,-1.2246467991473532e-16,-1,935,255)" href="#id-1" data-idx="193"></use><use transform="matrix(6.123233995736766e-17,1,-1,6.123233995736766e-17,1020,255)" href="#id-3" data-idx="194"></use><use transform="matrix(1,0,0,1,1105,255)" href="#id-2" data-idx="195"></use><use transform="matrix(-1.8369701987210297e-16,-1,1,-1.8369701987210297e-16,1275,255)" href="#id-2" data-idx="196"></use><use transform="matrix(6.123233995736766e-17,1,-1,6.123233995736766e-17,1360,255)" href="#id-1" data-idx="197"></use><use transform="matrix(-1.8369701987210297e-16,-1,1,-1.8369701987210297e-16,1530,255)" href="#id-3" data-idx="198"></use><use transform="matrix(-1.8369701987210297e-16,-1,1,-1.8369701987210297e-16,1615,255)" href="#id-0" data-idx="199"></use><use transform="matrix(-1.8369701987210297e-16,-1,1,-1.8369701987210297e-16,1700,255)" href="#id-3" data-idx="200"></use><use transform="matrix(6.123233995736766e-17,1,-1,6.123233995736766e-17,1785,255)" href="#id-3" data-idx="201"></use><use transform="matrix(1,0,0,1,1955,255)" href="#id-3" data-idx="202"></use><use transform="matrix(6.123233995736766e-17,1,-1,6.123233995736766e-17,2040,255)" href="#id-3" data-idx="203"></use><use transform="matrix(1,0,0,1,2125,255)" href="#id-0" data-idx="204"></use><use transform="matrix(1,0,0,1,2295,255)" href="#id-2" data-idx="205"></use><use transform="matrix(6.123233995736766e-17,1,-1,6.123233995736766e-17,2380,255)" href="#id-0" data-idx="206"></use><use transform="matrix(6.123233995736766e-17,1,-1,6.123233995736766e-17,2465,255)" href="#id-0" data-idx="207"></use><use transform="matrix(1,0,0,1,2550,255)" href="#id-0" data-idx="208"></use><use transform="matrix(-1.8369701987210297e-16,-1,1,-1.8369701987210297e-16,0,340)" href="#id-0" data-idx="209"></use><use transform="matrix(-1,1.2246467991473532e-16,-1.2246467991473532e-16,-1,85,340)" href="#id-0" data-idx="210"></use><g transform="matrix(1,0,0,1,170,340)" data-idx="211"><g data-idx="212" transform="matrix(1,0,0,1,0,47.91371536254883)">
<use transform="matrix(-1.8369701987210297e-16,-1,1,-1.8369701987210297e-16,0,0)" href="#id-0" data-idx="213"></use>

</g></g><use transform="matrix(-1,1.2246467991473532e-16,-1.2246467991473532e-16,-1,255,340)" href="#id-0" data-idx="215"></use><use transform="matrix(6.123233995736766e-17,1,-1,6.123233995736766e-17,340,340)" href="#id-0" data-idx="216"></use><use transform="matrix(1,0,0,1,425,340)" href="#id-1" data-idx="217"></use><use transform="matrix(-1.8369701987210297e-16,-1,1,-1.8369701987210297e-16,510,340)" href="#id-3" data-idx="218"></use><use transform="matrix(1,0,0,1,595,340)" href="#id-1" data-idx="219"></use><use transform="matrix(6.123233995736766e-17,1,-1,6.123233995736766e-17,680,340)" href="#id-0" data-idx="220"></use><use transform="matrix(1,0,0,1,765,340)" href="#id-1" data-idx="221"></use><use transform="matrix(-1.8369701987210297e-16,-1,1,-1.8369701987210297e-16,850,340)" href="#id-2" data-idx="222"></use><use transform="matrix(-1.8369701987210297e-16,-1,1,-1.8369701987210297e-16,1020,340)" href="#id-3" data-idx="223"></use><use transform="matrix(1,0,0,1,1105,340)" href="#id-3" data-idx="224"></use><use transform="matrix(-1.8369701987210297e-16,-1,1,-1.8369701987210297e-16,1190,340)" href="#id-2" data-idx="225"></use><use transform="matrix(-1,1.2246467991473532e-16,-1.2246467991473532e-16,-1,1445,340)" href="#id-2" data-idx="226"></use><use transform="matrix(-1.8369701987210297e-16,-1,1,-1.8369701987210297e-16,1530,340)" href="#id-1" data-idx="227"></use><use transform="matrix(6.123233995736766e-17,1,-1,6.123233995736766e-17,1615,340)" href="#id-3" data-idx="228"></use><use transform="matrix(6.123233995736766e-17,1,-1,6.123233995736766e-17,1700,340)" href="#id-1" data-idx="229"></use><use transform="matrix(-1.8369701987210297e-16,-1,1,-1.8369701987210297e-16,1785,340)" href="#id-1" data-idx="230"></use><use transform="matrix(-1,1.2246467991473532e-16,-1.2246467991473532e-16,-1,1870,340)" href="#id-3" data-idx="231"></use><use transform="matrix(-1,1.2246467991473532e-16,-1.2246467991473532e-16,-1,1955,340)" href="#id-2" data-idx="232"></use><use transform="matrix(-1.8369701987210297e-16,-1,1,-1.8369701987210297e-16,2040,340)" href="#id-3" data-idx="233"></use><use transform="matrix(-1.8369701987210297e-16,-1,1,-1.8369701987210297e-16,2125,340)" href="#id-1" data-idx="234"></use><use transform="matrix(-1.8369701987210297e-16,-1,1,-1.8369701987210297e-16,2210,340)" href="#id-2" data-idx="235"></use><use transform="matrix(-1.8369701987210297e-16,-1,1,-1.8369701987210297e-16,2295,340)" href="#id-0" data-idx="236"></use><use transform="matrix(6.123233995736766e-17,1,-1,6.123233995736766e-17,2465,340)" href="#id-2" data-idx="237"></use><use transform="matrix(6.123233995736766e-17,1,-1,6.123233995736766e-17,2550,340)" href="#id-2" data-idx="238"></use><use transform="matrix(6.123233995736766e-17,1,-1,6.123233995736766e-17,2635,340)" href="#id-0" data-idx="239"></use><use transform="matrix(-1.8369701987210297e-16,-1,1,-1.8369701987210297e-16,85,425)" href="#id-3" data-idx="240"></use><g transform="matrix(1,0,0,1,170,425)" data-idx="241"><g data-idx="242" transform="matrix(1,0,0,1,0,47.91371536254883)">
<use transform="matrix(-1.8369701987210297e-16,-1,1,-1.8369701987210297e-16,0,0)" href="#id-0" data-idx="243"></use>

</g></g><use transform="matrix(1,0,0,1,255,425)" href="#id-2" data-idx="245"></use><use transform="matrix(-1.8369701987210297e-16,-1,1,-1.8369701987210297e-16,340,425)" href="#id-2" data-idx="246"></use><use transform="matrix(-1.8369701987210297e-16,-1,1,-1.8369701987210297e-16,425,425)" href="#id-3" data-idx="247"></use><use transform="matrix(6.123233995736766e-17,1,-1,6.123233995736766e-17,595,425)" href="#id-1" data-idx="248"></use><use transform="matrix(-1.8369701987210297e-16,-1,1,-1.8369701987210297e-16,765,425)" href="#id-2" data-idx="249"></use><use transform="matrix(6.123233995736766e-17,1,-1,6.123233995736766e-17,850,425)" href="#id-0" data-idx="250"></use><use transform="matrix(-1.8369701987210297e-16,-1,1,-1.8369701987210297e-16,935,425)" href="#id-0" data-idx="251"></use><use transform="matrix(-1,1.2246467991473532e-16,-1.2246467991473532e-16,-1,1020,425)" href="#id-3" data-idx="252"></use><use transform="matrix(6.123233995736766e-17,1,-1,6.123233995736766e-17,1105,425)" href="#id-2" data-idx="253"></use><use transform="matrix(6.123233995736766e-17,1,-1,6.123233995736766e-17,1190,425)" href="#id-1" data-idx="254"></use><use transform="matrix(-1,1.2246467991473532e-16,-1.2246467991473532e-16,-1,1360,425)" href="#id-0" data-idx="255"></use><use transform="matrix(1,0,0,1,1445,425)" href="#id-3" data-idx="256"></use><use transform="matrix(-1,1.2246467991473532e-16,-1.2246467991473532e-16,-1,1530,425)" href="#id-3" data-idx="257"></use><use transform="matrix(1,0,0,1,1615,425)" href="#id-0" data-idx="258"></use><use transform="matrix(6.123233995736766e-17,1,-1,6.123233995736766e-17,1785,425)" href="#id-0" data-idx="259"></use><use transform="matrix(1,0,0,1,1870,425)" href="#id-2" data-idx="260"></use><use transform="matrix(6.123233995736766e-17,1,-1,6.123233995736766e-17,2040,425)" href="#id-2" data-idx="261"></use><use transform="matrix(-1,1.2246467991473532e-16,-1.2246467991473532e-16,-1,2125,425)" href="#id-2" data-idx="262"></use><use transform="matrix(6.123233995736766e-17,1,-1,6.123233995736766e-17,2295,425)" href="#id-0" data-idx="263"></use><use transform="matrix(6.123233995736766e-17,1,-1,6.123233995736766e-17,2380,425)" href="#id-0" data-idx="264"></use><use transform="matrix(-1.8369701987210297e-16,-1,1,-1.8369701987210297e-16,2550,425)" href="#id-0" data-idx="265"></use><use transform="matrix(6.123233995736766e-17,1,-1,6.123233995736766e-17,2635,425)" href="#id-2" data-idx="266"></use><use transform="matrix(6.123233995736766e-17,1,-1,6.123233995736766e-17,0,510)" href="#id-3" data-idx="267"></use><use transform="matrix(-1.8369701987210297e-16,-1,1,-1.8369701987210297e-16,85,510)" href="#id-1" data-idx="268"></use><use transform="matrix(1,0,0,1,255,510)" href="#id-0" data-idx="269"></use><use transform="matrix(-1,1.2246467991473532e-16,-1.2246467991473532e-16,-1,340,510)" href="#id-0" data-idx="270"></use><use transform="matrix(1,0,0,1,510,510)" href="#id-0" data-idx="271"></use><use transform="matrix(1,0,0,1,595,510)" href="#id-2" data-idx="272"></use><use transform="matrix(6.123233995736766e-17,1,-1,6.123233995736766e-17,680,510)" href="#id-0" data-idx="273"></use><use transform="matrix(-1.8369701987210297e-16,-1,1,-1.8369701987210297e-16,765,510)" href="#id-3" data-idx="274"></use><use transform="matrix(1,0,0,1,850,510)" href="#id-2" data-idx="275"></use><use transform="matrix(-1,1.2246467991473532e-16,-1.2246467991473532e-16,-1,935,510)" href="#id-1" data-idx="276"></use><use transform="matrix(-1,1.2246467991473532e-16,-1.2246467991473532e-16,-1,1020,510)" href="#id-0" data-idx="277"></use><use transform="matrix(6.123233995736766e-17,1,-1,6.123233995736766e-17,1360,510)" href="#id-1" data-idx="278"></use><use transform="matrix(6.123233995736766e-17,1,-1,6.123233995736766e-17,1445,510)" href="#id-2" data-idx="279"></use><use transform="matrix(-1.8369701987210297e-16,-1,1,-1.8369701987210297e-16,1530,510)" href="#id-2" data-idx="280"></use><use transform="matrix(-1.8369701987210297e-16,-1,1,-1.8369701987210297e-16,1615,510)" href="#id-0" data-idx="281"></use><use transform="matrix(-1.8369701987210297e-16,-1,1,-1.8369701987210297e-16,1700,510)" href="#id-1" data-idx="282"></use><use transform="matrix(-1.8369701987210297e-16,-1,1,-1.8369701987210297e-16,1785,510)" href="#id-1" data-idx="283"></use><use transform="matrix(-1.8369701987210297e-16,-1,1,-1.8369701987210297e-16,1870,510)" href="#id-1" data-idx="284"></use><use transform="matrix(-1.8369701987210297e-16,-1,1,-1.8369701987210297e-16,1955,510)" href="#id-3" data-idx="285"></use><use transform="matrix(6.123233995736766e-17,1,-1,6.123233995736766e-17,2295,510)" href="#id-2" data-idx="286"></use><use transform="matrix(1,0,0,1,2380,510)" href="#id-0" data-idx="287"></use><use transform="matrix(-1,1.2246467991473532e-16,-1.2246467991473532e-16,-1,2465,510)" href="#id-2" data-idx="288"></use><use transform="matrix(6.123233995736766e-17,1,-1,6.123233995736766e-17,2550,510)" href="#id-2" data-idx="289"></use><use transform="matrix(6.123233995736766e-17,1,-1,6.123233995736766e-17,2635,510)" href="#id-0" data-idx="290"></use><use transform="matrix(6.123233995736766e-17,1,-1,6.123233995736766e-17,0,595)" href="#id-3" data-idx="291"></use><use transform="matrix(1,0,0,1,85,595)" href="#id-0" data-idx="292"></use><g transform="matrix(1,0,0,1,170,595)" data-idx="293"><g data-idx="294" transform="matrix(1,0,0,1,0,47.91371536254883)">
<use transform="matrix(1,0,0,1,0,0)" href="#id-3" data-idx="295"></use>

</g></g><use transform="matrix(1,0,0,1,340,595)" href="#id-3" data-idx="297"></use><use transform="matrix(6.123233995736766e-17,1,-1,6.123233995736766e-17,425,595)" href="#id-0" data-idx="298"></use><use transform="matrix(1,0,0,1,510,595)" href="#id-2" data-idx="299"></use><use transform="matrix(-1,1.2246467991473532e-16,-1.2246467991473532e-16,-1,595,595)" href="#id-0" data-idx="300"></use><use transform="matrix(-1,1.2246467991473532e-16,-1.2246467991473532e-16,-1,680,595)" href="#id-1" data-idx="301"></use><use transform="matrix(6.123233995736766e-17,1,-1,6.123233995736766e-17,765,595)" href="#id-3" data-idx="302"></use><use transform="matrix(6.123233995736766e-17,1,-1,6.123233995736766e-17,850,595)" href="#id-2" data-idx="303"></use><use transform="matrix(6.123233995736766e-17,1,-1,6.123233995736766e-17,1105,595)" href="#id-2" data-idx="304"></use><use transform="matrix(6.123233995736766e-17,1,-1,6.123233995736766e-17,1190,595)" href="#id-0" data-idx="305"></use><use transform="matrix(-1.8369701987210297e-16,-1,1,-1.8369701987210297e-16,1445,595)" href="#id-2" data-idx="306"></use><use transform="matrix(-1,1.2246467991473532e-16,-1.2246467991473532e-16,-1,1615,595)" href="#id-0" data-idx="307"></use><use transform="matrix(1,0,0,1,1700,595)" href="#id-2" data-idx="308"></use><use transform="matrix(1,0,0,1,1785,595)" href="#id-2" data-idx="309"></use><use transform="matrix(-1.8369701987210297e-16,-1,1,-1.8369701987210297e-16,1955,595)" href="#id-1" data-idx="310"></use><use transform="matrix(-1,1.2246467991473532e-16,-1.2246467991473532e-16,-1,2040,595)" href="#id-2" data-idx="311"></use><use transform="matrix(6.123233995736766e-17,1,-1,6.123233995736766e-17,2125,595)" href="#id-0" data-idx="312"></use><use transform="matrix(-1,1.2246467991473532e-16,-1.2246467991473532e-16,-1,2210,595)" href="#id-1" data-idx="313"></use><use transform="matrix(1,0,0,1,2295,595)" href="#id-0" data-idx="314"></use><use transform="matrix(-1.8369701987210297e-16,-1,1,-1.8369701987210297e-16,2380,595)" href="#id-3" data-idx="315"></use><use transform="matrix(-1,1.2246467991473532e-16,-1.2246467991473532e-16,-1,2465,595)" href="#id-3" data-idx="316"></use><use transform="matrix(6.123233995736766e-17,1,-1,6.123233995736766e-17,2635,595)" href="#id-2" data-idx="317"></use><use transform="matrix(6.123233995736766e-17,1,-1,6.123233995736766e-17,0,680)" href="#id-2" data-idx="318"></use><g transform="matrix(1,0,0,1,170,680)" data-idx="319"><g data-idx="320" transform="matrix(1,0,0,1,0,47.91371536254883)">
<use transform="matrix(-1,1.2246467991473532e-16,-1.2246467991473532e-16,-1,0,0)" href="#id-2" data-idx="321"></use>

</g></g><use transform="matrix(1,0,0,1,255,680)" href="#id-3" data-idx="323"></use><use transform="matrix(-1.8369701987210297e-16,-1,1,-1.8369701987210297e-16,340,680)" href="#id-2" data-idx="324"></use><use transform="matrix(6.123233995736766e-17,1,-1,6.123233995736766e-17,425,680)" href="#id-0" data-idx="325"></use><use transform="matrix(1,0,0,1,595,680)" href="#id-2" data-idx="326"></use><use transform="matrix(-1.8369701987210297e-16,-1,1,-1.8369701987210297e-16,680,680)" href="#id-2" data-idx="327"></use><use transform="matrix(-1.8369701987210297e-16,-1,1,-1.8369701987210297e-16,765,680)" href="#id-1" data-idx="328"></use><use transform="matrix(-1,1.2246467991473532e-16,-1.2246467991473532e-16,-1,850,680)" href="#id-2" data-idx="329"></use><use transform="matrix(-1,1.2246467991473532e-16,-1.2246467991473532e-16,-1,935,680)" href="#id-2" data-idx="330"></use><use transform="matrix(1,0,0,1,1020,680)" href="#id-1" data-idx="331"></use><use transform="matrix(1,0,0,1,1105,680)" href="#id-1" data-idx="332"></use><use transform="matrix(1,0,0,1,1190,680)" href="#id-1" data-idx="333"></use><use transform="matrix(-1.8369701987210297e-16,-1,1,-1.8369701987210297e-16,1275,680)" href="#id-1" data-idx="334"></use><use transform="matrix(1,0,0,1,1360,680)" href="#id-2" data-idx="335"></use><use transform="matrix(-1,1.2246467991473532e-16,-1.2246467991473532e-16,-1,1530,680)" href="#id-2" data-idx="336"></use><use transform="matrix(6.123233995736766e-17,1,-1,6.123233995736766e-17,1700,680)" href="#id-3" data-idx="337"></use><use transform="matrix(-1.8369701987210297e-16,-1,1,-1.8369701987210297e-16,1785,680)" href="#id-1" data-idx="338"></use><use transform="matrix(1,0,0,1,1870,680)" href="#id-1" data-idx="339"></use><use transform="matrix(1,0,0,1,1955,680)" href="#id-3" data-idx="340"></use><use transform="matrix(1,0,0,1,2040,680)" href="#id-0" data-idx="341"></use><use transform="matrix(6.123233995736766e-17,1,-1,6.123233995736766e-17,2210,680)" href="#id-0" data-idx="342"></use><use transform="matrix(-1,1.2246467991473532e-16,-1.2246467991473532e-16,-1,2295,680)" href="#id-3" data-idx="343"></use><use transform="matrix(6.123233995736766e-17,1,-1,6.123233995736766e-17,2380,680)" href="#id-0" data-idx="344"></use><use transform="matrix(1,0,0,1,2465,680)" href="#id-3" data-idx="345"></use><use transform="matrix(1,0,0,1,2635,680)" href="#id-0" data-idx="346"></use><use transform="matrix(1,0,0,1,0,765)" href="#id-1" data-idx="347"></use><use transform="matrix(6.123233995736766e-17,1,-1,6.123233995736766e-17,85,765)" href="#id-1" data-idx="348"></use><g transform="matrix(1,0,0,1,170,765)" data-idx="349"><g data-idx="350" transform="matrix(1,0,0,1,0,47.91371536254883)">
<use transform="matrix(1,0,0,1,0,0)" href="#id-0" data-idx="351"></use>

</g></g><use transform="matrix(6.123233995736766e-17,1,-1,6.123233995736766e-17,255,765)" href="#id-1" data-idx="353"></use><use transform="matrix(1,0,0,1,340,765)" href="#id-0" data-idx="354"></use><use transform="matrix(6.123233995736766e-17,1,-1,6.123233995736766e-17,425,765)" href="#id-2" data-idx="355"></use><use transform="matrix(-1.8369701987210297e-16,-1,1,-1.8369701987210297e-16,510,765)" href="#id-3" data-idx="356"></use><use transform="matrix(-1.8369701987210297e-16,-1,1,-1.8369701987210297e-16,680,765)" href="#id-2" data-idx="357"></use><use transform="matrix(-1.8369701987210297e-16,-1,1,-1.8369701987210297e-16,765,765)" href="#id-2" data-idx="358"></use><use transform="matrix(6.123233995736766e-17,1,-1,6.123233995736766e-17,850,765)" href="#id-2" data-idx="359"></use><use transform="matrix(1,0,0,1,935,765)" href="#id-3" data-idx="360"></use><use transform="matrix(6.123233995736766e-17,1,-1,6.123233995736766e-17,1105,765)" href="#id-3" data-idx="361"></use><use transform="matrix(1,0,0,1,1190,765)" href="#id-1" data-idx="362"></use><use transform="matrix(-1,1.2246467991473532e-16,-1.2246467991473532e-16,-1,1275,765)" href="#id-0" data-idx="363"></use><use transform="matrix(6.123233995736766e-17,1,-1,6.123233995736766e-17,1360,765)" href="#id-2" data-idx="364"></use><use transform="matrix(6.123233995736766e-17,1,-1,6.123233995736766e-17,1445,765)" href="#id-2" data-idx="365"></use><use transform="matrix(6.123233995736766e-17,1,-1,6.123233995736766e-17,1530,765)" href="#id-3" data-idx="366"></use><use transform="matrix(-1,1.2246467991473532e-16,-1.2246467991473532e-16,-1,1615,765)" href="#id-3" data-idx="367"></use><use transform="matrix(-1.8369701987210297e-16,-1,1,-1.8369701987210297e-16,1700,765)" href="#id-0" data-idx="368"></use><use transform="matrix(-1,1.2246467991473532e-16,-1.2246467991473532e-16,-1,1785,765)" href="#id-3" data-idx="369"></use><use transform="matrix(1,0,0,1,1870,765)" href="#id-3" data-idx="370"></use><use transform="matrix(-1.8369701987210297e-16,-1,1,-1.8369701987210297e-16,1955,765)" href="#id-1" data-idx="371"></use><use transform="matrix(1,0,0,1,2040,765)" href="#id-2" data-idx="372"></use><use transform="matrix(-1,1.2246467991473532e-16,-1.2246467991473532e-16,-1,2125,765)" href="#id-0" data-idx="373"></use><use transform="matrix(-1,1.2246467991473532e-16,-1.2246467991473532e-16,-1,2210,765)" href="#id-0" data-idx="374"></use><use transform="matrix(1,0,0,1,2295,765)" href="#id-1" data-idx="375"></use><use transform="matrix(-1.8369701987210297e-16,-1,1,-1.8369701987210297e-16,2465,765)" href="#id-0" data-idx="376"></use><use transform="matrix(-1,1.2246467991473532e-16,-1.2246467991473532e-16,-1,2635,765)" href="#id-0" data-idx="377"></use><use transform="matrix(-1.8369701987210297e-16,-1,1,-1.8369701987210297e-16,0,850)" href="#id-1" data-idx="378"></use><use transform="matrix(6.123233995736766e-17,1,-1,6.123233995736766e-17,85,850)" href="#id-1" data-idx="379"></use><g transform="matrix(1,0,0,1,170,850)" data-idx="380"><g data-idx="381" transform="matrix(1,0,0,1,0,47.91371536254883)">
<use transform="matrix(-1,1.2246467991473532e-16,-1.2246467991473532e-16,-1,0,0)" href="#id-0" data-idx="382"></use>

</g></g><use transform="matrix(1,0,0,1,255,850)" href="#id-3" data-idx="384"></use><use transform="matrix(1,0,0,1,340,850)" href="#id-1" data-idx="385"></use><use transform="matrix(1,0,0,1,510,850)" href="#id-0" data-idx="386"></use><use transform="matrix(-1.8369701987210297e-16,-1,1,-1.8369701987210297e-16,595,850)" href="#id-3" data-idx="387"></use><use transform="matrix(-1.8369701987210297e-16,-1,1,-1.8369701987210297e-16,765,850)" href="#id-2" data-idx="388"></use><use transform="matrix(-1.8369701987210297e-16,-1,1,-1.8369701987210297e-16,850,850)" href="#id-0" data-idx="389"></use><use transform="matrix(6.123233995736766e-17,1,-1,6.123233995736766e-17,1020,850)" href="#id-3" data-idx="390"></use><use transform="matrix(1,0,0,1,1105,850)" href="#id-1" data-idx="391"></use><use transform="matrix(-1,1.2246467991473532e-16,-1.2246467991473532e-16,-1,1190,850)" href="#id-3" data-idx="392"></use><use transform="matrix(-1.8369701987210297e-16,-1,1,-1.8369701987210297e-16,1275,850)" href="#id-1" data-idx="393"></use><use transform="matrix(1,0,0,1,1445,850)" href="#id-1" data-idx="394"></use><use transform="matrix(1,0,0,1,1530,850)" href="#id-0" data-idx="395"></use><use transform="matrix(-1,1.2246467991473532e-16,-1.2246467991473532e-16,-1,1615,850)" href="#id-3" data-idx="396"></use><use transform="matrix(1,0,0,1,1700,850)" href="#id-0" data-idx="397"></use><use transform="matrix(-1,1.2246467991473532e-16,-1.2246467991473532e-16,-1,1785,850)" href="#id-2" data-idx="398"></use><use transform="matrix(-1.8369701987210297e-16,-1,1,-1.8369701987210297e-16,1870,850)" href="#id-2" data-idx="399"></use><use transform="matrix(1,0,0,1,1955,850)" href="#id-1" data-idx="400"></use><use transform="matrix(1,0,0,1,2040,850)" href="#id-2" data-idx="401"></use><use transform="matrix(6.123233995736766e-17,1,-1,6.123233995736766e-17,2125,850)" href="#id-0" data-idx="402"></use><use transform="matrix(-1,1.2246467991473532e-16,-1.2246467991473532e-16,-1,2210,850)" href="#id-1" data-idx="403"></use><use transform="matrix(6.123233995736766e-17,1,-1,6.123233995736766e-17,2380,850)" href="#id-3" data-idx="404"></use><use transform="matrix(-1.8369701987210297e-16,-1,1,-1.8369701987210297e-16,2635,850)" href="#id-1" data-idx="405"></use><use transform="matrix(-1.8369701987210297e-16,-1,1,-1.8369701987210297e-16,0,935)" href="#id-0" data-idx="406"></use><use transform="matrix(1,0,0,1,85,935)" href="#id-3" data-idx="407"></use><use transform="matrix(1,0,0,1,255,935)" href="#id-3" data-idx="408"></use><use transform="matrix(-1.8369701987210297e-16,-1,1,-1.8369701987210297e-16,340,935)" href="#id-0" data-idx="409"></use><use transform="matrix(6.123233995736766e-17,1,-1,6.123233995736766e-17,425,935)" href="#id-0" data-idx="410"></use><use transform="matrix(6.123233995736766e-17,1,-1,6.123233995736766e-17,510,935)" href="#id-0" data-idx="411"></use><use transform="matrix(6.123233995736766e-17,1,-1,6.123233995736766e-17,595,935)" href="#id-0" data-idx="412"></use><use transform="matrix(6.123233995736766e-17,1,-1,6.123233995736766e-17,680,935)" href="#id-1" data-idx="413"></use><use transform="matrix(6.123233995736766e-17,1,-1,6.123233995736766e-17,765,935)" href="#id-1" data-idx="414"></use><use transform="matrix(6.123233995736766e-17,1,-1,6.123233995736766e-17,850,935)" href="#id-3" data-idx="415"></use><use transform="matrix(-1,1.2246467991473532e-16,-1.2246467991473532e-16,-1,935,935)" href="#id-3" data-idx="416"></use><use transform="matrix(1,0,0,1,1020,935)" href="#id-0" data-idx="417"></use><use transform="matrix(-1.8369701987210297e-16,-1,1,-1.8369701987210297e-16,1275,935)" href="#id-0" data-idx="418"></use><use transform="matrix(-1.8369701987210297e-16,-1,1,-1.8369701987210297e-16,1360,935)" href="#id-0" data-idx="419"></use><use transform="matrix(6.123233995736766e-17,1,-1,6.123233995736766e-17,1445,935)" href="#id-1" data-idx="420"></use><use transform="matrix(1,0,0,1,1530,935)" href="#id-2" data-idx="421"></use><use transform="matrix(1,0,0,1,1615,935)" href="#id-2" data-idx="422"></use><use transform="matrix(6.123233995736766e-17,1,-1,6.123233995736766e-17,1785,935)" href="#id-3" data-idx="423"></use><use transform="matrix(6.123233995736766e-17,1,-1,6.123233995736766e-17,1870,935)" href="#id-2" data-idx="424"></use><use transform="matrix(1,0,0,1,2040,935)" href="#id-2" data-idx="425"></use><use transform="matrix(-1.8369701987210297e-16,-1,1,-1.8369701987210297e-16,2125,935)" href="#id-2" data-idx="426"></use><use transform="matrix(1,0,0,1,2210,935)" href="#id-0" data-idx="427"></use><use transform="matrix(-1.8369701987210297e-16,-1,1,-1.8369701987210297e-16,2295,935)" href="#id-2" data-idx="428"></use><use transform="matrix(-1,1.2246467991473532e-16,-1.2246467991473532e-16,-1,2380,935)" href="#id-0" data-idx="429"></use><use transform="matrix(-1,1.2246467991473532e-16,-1.2246467991473532e-16,-1,2635,935)" href="#id-3" data-idx="430"></use><g data-idx="431"></g></g><text data-watermark="true" text-anchor="middle" dominant-baseline="middle" stroke-opacity="0.1" fill="black" fill-opacity="0.1" stroke="white" stroke-width="1" font-size="15.0" x="1280.0" y="459.5" data-idx="432" style="opacity: 1; font-size: 15px;"></text></svg>